<svg width="39" height="25" viewBox="0 0 39 25" fill="none" xmlns="http://www.w3.org/2000/svg">
<path d="M16.0909 0.727272H18.9091V16.1364C18.9091 17.7273 18.5341 19.1477 17.7841 20.3977C17.0417 21.6402 15.9924 22.6212 14.6364 23.3409C13.2803 24.053 11.6894 24.4091 9.86364 24.4091C8.03788 24.4091 6.44697 24.053 5.09091 23.3409C3.73485 22.6212 2.68182 21.6402 1.93182 20.3977C1.18939 19.1477 0.818182 17.7273 0.818182 16.1364V0.727272H3.63636V15.9091C3.63636 17.0455 3.88636 18.0568 4.38636 18.9432C4.88636 19.822 5.59849 20.5152 6.52273 21.0227C7.45455 21.5227 8.56818 21.7727 9.86364 21.7727C11.1591 21.7727 12.2727 21.5227 13.2045 21.0227C14.1364 20.5152 14.8485 19.822 15.3409 18.9432C15.8409 18.0568 16.0909 17.0455 16.0909 15.9091V0.727272ZM24.5369 24V0.727272H38.5824V3.22727H27.3551V11.0909H37.8551V13.5909H27.3551V21.5H38.7642V24H24.5369Z" fill="white"/>
</svg>
